<mxfile host="app.diagrams.net" modified="2024-06-26T07:59:21.762Z" agent="Mozilla/5.0 (Windows NT 10.0; Win64; x64) AppleWebKit/537.36 (KHTML, like Gecko) Chrome/126.0.0.0 Safari/537.36 Edg/126.0.0.0" version="24.5.3" etag="WKnnTI_Idp53zg-9hfrd" type="github">
  <diagram name="Page-1" id="MOkAgK_0A2TrSvj5lDUs">
    <mxGraphModel>
      <root>
        <mxCell id="0" />
        <mxCell id="1" parent="0" />
      </root>
    </mxGraphModel>
  </diagram>
</mxfile>
